<svg width="65" height="58" viewBox="0 0 65 58" fill="none" xmlns="http://www.w3.org/2000/svg">
<rect width="65.0016" height="57.5005" rx="28.7502" fill="#F8DC04"/>
<path d="M36.6306 28.7514C35.9704 28.7514 35.3493 28.3999 35.0134 27.8374L32.5017 23.6733L29.9938 27.8374C29.654 28.4038 29.0329 28.7554 28.3727 28.7554C28.197 28.7554 28.0212 28.7319 27.8532 28.6811L22.5017 27.1499V34.103C22.5017 34.6772 22.8923 35.1772 23.447 35.3139L31.8923 37.4272C32.2907 37.5249 32.7087 37.5249 33.1032 37.4272L41.5563 35.3139C42.111 35.1733 42.5017 34.6733 42.5017 34.103V27.1499L37.1501 28.6772C36.9821 28.728 36.8063 28.7514 36.6306 28.7514ZM44.9352 24.3686L42.9235 20.353C42.8024 20.1108 42.5407 19.9702 42.2712 20.0054L32.5017 21.2514L36.0837 27.1929C36.2321 27.4389 36.529 27.5561 36.8063 27.478L44.5368 25.271C44.9235 25.1577 45.111 24.728 44.9352 24.3686ZM22.0798 20.353L20.0681 24.3686C19.8884 24.728 20.0798 25.1577 20.4626 25.2671L28.1931 27.4741C28.4704 27.5522 28.7673 27.435 28.9157 27.1889L32.5017 21.2514L22.7282 20.0054C22.4587 19.9741 22.2009 20.1108 22.0798 20.353Z" fill="black"/>
</svg>
