<svg xmlns="http://www.w3.org/2000/svg">

<symbol id="check" viewBox="0 0 640 640"><!--!Font Awesome Free v7.2.0 by @fontawesome - https://fontawesome.com License - https://fontawesome.com/license/free Copyright 2026 Fonticons, Inc.--><path d="M530.8 134.1C545.1 144.5 548.3 164.5 537.9 178.8L281.9 530.8C276.4 538.4 267.9 543.1 258.5 543.9C249.1 544.7 240 541.2 233.4 534.6L105.4 406.6C92.9 394.1 92.9 373.8 105.4 361.3C117.9 348.8 138.2 348.8 150.7 361.3L252.2 462.8L486.2 141.1C496.6 126.8 516.6 123.6 530.9 134z"/></symbol>

<symbol id="desktop" viewBox="0 0 640 640"><!--!Font Awesome Free v7.2.0 by @fontawesome - https://fontawesome.com License - https://fontawesome.com/license/free Copyright 2026 Fonticons, Inc.--><path d="M512 160L512 416L128 416L128 160L512 160zM128 96C92.7 96 64 124.7 64 160L64 416C64 451.3 92.7 480 128 480L272 480L256 528L184 528C170.7 528 160 538.7 160 552C160 565.3 170.7 576 184 576L456 576C469.3 576 480 565.3 480 552C480 538.7 469.3 528 456 528L384 528L368 480L512 480C547.3 480 576 451.3 576 416L576 160C576 124.7 547.3 96 512 96L128 96z"/></symbol>

<symbol id="code" viewBox="0 0 640 640"><!--!Font Awesome Free v7.2.0 by @fontawesome - https://fontawesome.com License - https://fontawesome.com/license/free Copyright 2026 Fonticons, Inc.--><path d="M392.8 65.2C375.8 60.3 358.1 70.2 353.2 87.2L225.2 535.2C220.3 552.2 230.2 569.9 247.2 574.8C264.2 579.7 281.9 569.8 286.8 552.8L414.8 104.8C419.7 87.8 409.8 70.1 392.8 65.2zM457.4 201.3C444.9 213.8 444.9 234.1 457.4 246.6L530.8 320L457.4 393.4C444.9 405.9 444.9 426.2 457.4 438.7C469.9 451.2 490.2 451.2 502.7 438.7L598.7 342.7C611.2 330.2 611.2 309.9 598.7 297.4L502.7 201.4C490.2 188.9 469.9 188.9 457.4 201.4zM182.7 201.3C170.2 188.8 149.9 188.8 137.4 201.3L41.4 297.3C28.9 309.8 28.9 330.1 41.4 342.6L137.4 438.6C149.9 451.1 170.2 451.1 182.7 438.6C195.2 426.1 195.2 405.8 182.7 393.3L109.3 320L182.6 246.6C195.1 234.1 195.1 213.8 182.6 201.3z"/></symbol>

<symbol id="cross" viewBox="0 0 640 640"><!--!Font Awesome Free v7.2.0 by @fontawesome - https://fontawesome.com License - https://fontawesome.com/license/free Copyright 2026 Fonticons, Inc.--><path d="M504.6 148.5C515.9 134.9 514.1 114.7 500.5 103.4C486.9 92.1 466.7 93.9 455.4 107.5L320 270L184.6 107.5C173.3 93.9 153.1 92.1 139.5 103.4C125.9 114.7 124.1 134.9 135.4 148.5L278.3 320L135.4 491.5C124.1 505.1 125.9 525.3 139.5 536.6C153.1 547.9 173.3 546.1 184.6 532.5L320 370L455.4 532.5C466.7 546.1 486.9 547.9 500.5 536.6C514.1 525.3 515.9 505.1 504.6 491.5L361.7 320L504.6 148.5z"/></symbol>

<symbol id="instagram-icon" viewBox="0 0 640 640"><!--!Font Awesome Free v7.2.0 by @fontawesome - https://fontawesome.com License - https://fontawesome.com/license/free Copyright 2026 Fonticons, Inc.--><path d="M320.3 205C256.8 204.8 205.2 256.2 205 319.7C204.8 383.2 256.2 434.8 319.7 435C383.2 435.2 434.8 383.8 435 320.3C435.2 256.8 383.8 205.2 320.3 205zM319.7 245.4C360.9 245.2 394.4 278.5 394.6 319.7C394.8 360.9 361.5 394.4 320.3 394.6C279.1 394.8 245.6 361.5 245.4 320.3C245.2 279.1 278.5 245.6 319.7 245.4zM413.1 200.3C413.1 185.5 425.1 173.5 439.9 173.5C454.7 173.5 466.7 185.5 466.7 200.3C466.7 215.1 454.7 227.1 439.9 227.1C425.1 227.1 413.1 215.1 413.1 200.3zM542.8 227.5C541.1 191.6 532.9 159.8 506.6 133.6C480.4 107.4 448.6 99.2 412.7 97.4C375.7 95.3 264.8 95.3 227.8 97.4C192 99.1 160.2 107.3 133.9 133.5C107.6 159.7 99.5 191.5 97.7 227.4C95.6 264.4 95.6 375.3 97.7 412.3C99.4 448.2 107.6 480 133.9 506.2C160.2 532.4 191.9 540.6 227.8 542.4C264.8 544.5 375.7 544.5 412.7 542.4C448.6 540.7 480.4 532.5 506.6 506.2C532.8 480 541 448.2 542.8 412.3C544.9 375.3 544.9 264.5 542.8 227.5zM495 452C487.2 471.6 472.1 486.7 452.4 494.6C422.9 506.3 352.9 503.6 320.3 503.6C287.7 503.6 217.6 506.2 188.2 494.6C168.6 486.8 153.5 471.7 145.6 452C133.9 422.5 136.6 352.5 136.6 319.9C136.6 287.3 134 217.2 145.6 187.8C153.4 168.2 168.5 153.1 188.2 145.2C217.7 133.5 287.7 136.2 320.3 136.2C352.9 136.2 423 133.6 452.4 145.2C472 153 487.1 168.1 495 187.8C506.7 217.3 504 287.3 504 319.9C504 352.5 506.7 422.6 495 452z"/>
</symbol>

<symbol id="hamburger" xmlns="http://www.w3.org/2000/svg" viewBox="0 0 640 640"><!--!Font Awesome Free v7.2.0 by @fontawesome - https://fontawesome.com License - https://fontawesome.com/license/free Copyright 2026 Fonticons, Inc.--><path d="M96 160C96 142.3 110.3 128 128 128L512 128C529.7 128 544 142.3 544 160C544 177.7 529.7 192 512 192L128 192C110.3 192 96 177.7 96 160zM96 320C96 302.3 110.3 288 128 288L512 288C529.7 288 544 302.3 544 320C544 337.7 529.7 352 512 352L128 352C110.3 352 96 337.7 96 320zM544 480C544 497.7 529.7 512 512 512L128 512C110.3 512 96 497.7 96 480C96 462.3 110.3 448 128 448L512 448C529.7 448 544 462.3 544 480z"/></symbol>

</svg>